<?xml version="1.0" encoding="UTF-8"?>
<svg version="1.1" xmlns="http://www.w3.org/2000/svg" width="500" height="500">
<path d="M0 0 C165 0 330 0 500 0 C500 165 500 330 500 500 C335 500 170 500 0 500 C0 335 0 170 0 0 Z " fill="#FEFEFE" transform="translate(0,0)"/>
<path d="M0 0 C37.29 0 74.58 0 113 0 C113 71.94 113 143.88 113 218 C75.71 218 38.42 218 0 218 C0 146.06 0 74.12 0 0 Z " fill="#192C76" transform="translate(193,88)"/>
<path d="M0 0 C37.29 0 74.58 0 113 0 C113 56.1 113 112.2 113 170 C75.71 170 38.42 170 0 170 C0 113.9 0 57.8 0 0 Z " fill="#FF7403" transform="translate(58,136)"/>
<path d="M0 0 C37.29 0 74.58 0 113 0 C113 39.6 113 79.2 113 120 C75.71 120 38.42 120 0 120 C0 80.4 0 40.8 0 0 Z " fill="#93DAFE" transform="translate(329,186)"/>
<path d="M0 0 C0.33 -0.66 0.66 -1.32 1 -2 C6.94 -2 12.88 -2 19 -2 C19.49197876 0.03692017 19.49197876 0.03692017 19.99389648 2.11499023 C21.20727124 7.1345804 22.42530383 12.15303042 23.64477539 17.17114258 C24.17274863 19.34661345 24.69944399 21.52239486 25.22485352 23.69848633 C25.97860412 26.81934061 26.73688553 29.9390633 27.49609375 33.05859375 C27.73154404 34.03775253 27.96699432 35.01691132 28.20957947 36.02574158 C28.42973221 36.92659988 28.64988495 37.82745819 28.87670898 38.75561523 C29.06990219 39.55281479 29.2630954 40.35001434 29.46214294 41.17137146 C29.84187544 43.00148912 29.84187544 43.00148912 31 44 C34.64723057 31.58389592 38.04696506 19.13968698 41.08251953 6.55859375 C41.3195459 5.58535156 41.55657227 4.61210937 41.80078125 3.609375 C42.00872314 2.74280273 42.21666504 1.87623047 42.4309082 0.98339844 C43 -1 43 -1 44 -2 C46.01964199 -2.07244053 48.04167124 -2.08377188 50.0625 -2.0625 C51.16722656 -2.05347656 52.27195312 -2.04445313 53.41015625 -2.03515625 C54.26480469 -2.02355469 55.11945313 -2.01195312 56 -2 C58.91250213 5.12142289 60.69754477 12.40543664 62.5 19.875 C64.46946696 27.98507574 66.48941199 36.03830925 69 44 C73.37435622 28.76030737 77.20524253 13.39286538 81 -2 C87.81348437 -2.07642878 94.62685705 -2.12875823 101.44067383 -2.16479492 C103.75582002 -2.17982729 106.070938 -2.2002587 108.38598633 -2.22631836 C111.72484324 -2.26294596 115.0633217 -2.27978241 118.40234375 -2.29296875 C119.94038918 -2.31619453 119.94038918 -2.31619453 121.50950623 -2.33988953 C128.67096454 -2.34154481 135.57211263 -1.73544267 141.33984375 2.8671875 C146.21371863 8.99230165 148.56536078 13.33332968 148.375 21.3046875 C147.60093976 26.86824549 145.25911968 31.84268615 141.1796875 35.73828125 C136.78785211 39 136.78785211 39 134 39 C137.63973794 44.01693607 141.47498986 48.79192076 145.5 53.5 C157 66.96715637 157 66.96715637 157 69 C139.87261507 70.94459392 139.87261507 70.94459392 133.83203125 66.85546875 C131.73170549 64.29601795 129.89005999 61.72243913 128.18017578 58.88818359 C126.45583839 56.12938646 124.49449697 53.56457213 122.53491211 50.9699707 C120.31964279 48.00726385 118.16592337 44.99897083 116 42 C115.67 50.91 115.34 59.82 115 69 C109.72 69 104.44 69 99 69 C98.67 48.21 98.34 27.42 98 6 C93.29065971 21.47354667 88.70784151 36.94437252 84.390625 52.52539062 C83.68241297 55.07759089 82.97029576 57.62867695 82.2578125 60.1796875 C82.04432159 60.95545135 81.83083069 61.73121521 81.61087036 62.53048706 C80.11302741 67.88697259 80.11302741 67.88697259 79 69 C77.65732587 69.08631874 76.31025678 69.10706473 74.96484375 69.09765625 C74.15595703 69.09443359 73.34707031 69.09121094 72.51367188 69.08789062 C71.66353516 69.07951172 70.81339844 69.07113281 69.9375 69.0625 C69.08349609 69.05798828 68.22949219 69.05347656 67.34960938 69.04882812 C65.23304337 69.03700373 63.11651315 69.01906769 61 69 C60.80365967 68.28980713 60.60731934 67.57961426 60.4050293 66.84790039 C59.50160329 63.58542545 58.59457691 60.32396166 57.6875 57.0625 C57.37876953 55.94552734 57.07003906 54.82855469 56.75195312 53.67773438 C55.16837012 47.99350484 53.52597767 42.36816147 51.54492188 36.80859375 C50.8479929 34.495489 50.76802349 32.3970906 51 30 C50.34 30 49.68 30 49 30 C48.90589844 31.24523437 48.81179688 32.49046875 48.71484375 33.7734375 C48.06342561 39.62360747 46.34930735 45.03531347 44.5625 50.625 C43.93837467 52.61705364 43.31466649 54.60923803 42.69140625 56.6015625 C42.27677124 57.90601318 42.27677124 57.90601318 41.85375977 59.23681641 C40.85284038 62.47628039 39.93146128 65.73988552 39 69 C32.73 69 26.46 69 20 69 C19.57589844 67.38996094 19.15179688 65.77992188 18.71484375 64.12109375 C15.487201 51.954292 12.14200612 39.8469255 8.39819336 27.82788086 C6.45711132 21.58740902 4.68204439 15.31524323 3 9 C1.35 11.64 -0.3 14.28 -2 17 C-2.845625 16.505 -3.69125 16.01 -4.5625 15.5 C-11.18915721 12.67352784 -19.74684587 12.81573852 -26.609375 14.7265625 C-32.1480957 17.28770027 -35.65141971 21.38729118 -38 27 C-38.79368715 33.46024423 -38.67536818 39.60115455 -35.34375 45.3125 C-32.30356662 49.13040471 -28.58827714 51.47057429 -24 53 C-21.58638816 53.14730964 -19.16793032 53.22110043 -16.75 53.25 C-14.82414062 53.28867187 -14.82414062 53.28867187 -12.859375 53.328125 C-8.32862112 53.14676662 -8.32862112 53.14676662 -2 50 C0.31 54.62 2.62 59.24 5 64 C-2.55389405 67.97573371 -9.20476823 70.38557841 -17.875 70.3125 C-18.57826416 70.30686035 -19.28152832 70.3012207 -20.00610352 70.29541016 C-31.3458218 70.03099562 -39.61923855 65.27670259 -47.8125 57.625 C-53.778747 51.31348408 -55.68595616 44.43754468 -57 36 C-59.97 36 -62.94 36 -66 36 C-65.67 42.6 -65.34 49.2 -65 56 C-62.69 56 -60.38 56 -58 56 C-57.49166409 57.24663331 -56.99368855 58.49749387 -56.5 59.75 C-56.2215625 60.44609375 -55.943125 61.1421875 -55.65625 61.859375 C-55 64 -55 64 -55 68 C-58.49768983 70.14650403 -61.37351737 70.29840526 -65.4375 70.3125 C-66.54996094 70.32925781 -67.66242188 70.34601563 -68.80859375 70.36328125 C-72.51116132 69.94181395 -74.15272277 69.40996587 -77 67 C-81.68467657 60.8599647 -81.49178214 54.43015117 -81.25 47 C-81.23195312 45.93910156 -81.21390625 44.87820313 -81.1953125 43.78515625 C-81.14853748 41.1891428 -81.08301142 38.59506472 -81 36 C-82.98 36 -84.96 36 -87 36 C-87 32.37 -87 28.74 -87 25 C-85.02 25 -83.04 25 -81 25 C-81 19.72 -81 14.44 -81 9 C-76.05 9 -71.1 9 -66 9 C-66 14.28 -66 19.56 -66 25 C-62.37 25 -58.74 25 -55 25 C-54.95875 24.01 -54.9175 23.02 -54.875 22 C-53.74048712 14.3803662 -47.16201566 8.58540672 -41.52734375 3.83203125 C-28.99782768 -5.25041548 -14.16762824 -5.04271514 0 0 Z " fill="#040404" transform="translate(223,315)"/>
<path d="M0 0 C35.24058577 0 35.24058577 0 41.33984375 4.8671875 C46.21371863 10.99230165 48.56536078 15.33332968 48.375 23.3046875 C47.60093976 28.86824549 45.25911968 33.84268615 41.1796875 37.73828125 C36.78785211 41 36.78785211 41 34 41 C37.63973794 46.01693607 41.47498986 50.79192076 45.5 55.5 C57 68.96715637 57 68.96715637 57 71 C39.87261507 72.94459392 39.87261507 72.94459392 33.83203125 68.85546875 C31.73170549 66.29601795 29.89005999 63.72243913 28.18017578 60.88818359 C26.45583839 58.12938646 24.49449697 55.56457213 22.53491211 52.9699707 C20.31964279 50.00726385 18.16592337 46.99897083 16 44 C15.67 52.91 15.34 61.82 15 71 C10.05 71 5.1 71 0 71 C0 47.57 0 24.14 0 0 Z " fill="#020202" transform="translate(323,313)"/>
<path d="M0 0 C5.28 0 10.56 0 16 0 C16.01458252 1.45817139 16.02916504 2.91634277 16.04418945 4.41870117 C16.10219647 9.83284937 16.17942995 15.24658273 16.26245117 20.66040039 C16.29568906 23.00277978 16.3237245 25.34523904 16.34643555 27.68774414 C16.38000168 31.05649833 16.43232019 34.42452131 16.48828125 37.79296875 C16.49467117 38.83897751 16.5010611 39.88498627 16.50764465 40.96269226 C16.57836695 47.9974983 16.57836695 47.9974983 20 54 C22.46009963 55.23004981 24.13172806 55.13314027 26.875 55.125 C27.73867188 55.12757813 28.60234375 55.13015625 29.4921875 55.1328125 C32.86412154 55.03866415 32.86412154 55.03866415 36 54 C38.54246246 48.47648318 38.34651488 42.87268114 38.4140625 36.9140625 C38.43342865 35.85714203 38.4527948 34.80022156 38.4727478 33.71127319 C38.53232914 30.34926316 38.57884342 26.98721849 38.625 23.625 C38.66319948 21.33982916 38.70225236 19.05467242 38.7421875 16.76953125 C38.8380132 11.17980253 38.92212359 5.59000643 39 0 C44.28 0 49.56 0 55 0 C55.09943606 7.20414276 55.17173702 14.40787932 55.21972656 21.61254883 C55.2397483 24.0595598 55.26697398 26.50652349 55.30175781 28.95336914 C55.35069163 32.48595907 55.37306416 36.01791229 55.390625 39.55078125 C55.41127014 40.63144363 55.43191528 41.71210602 55.45318604 42.82551575 C55.45544929 50.61817344 54.53338589 58.79464295 49.33746338 64.97871399 C43.1075602 70.94890812 35.4505689 72.55195185 27.0625 72.4375 C25.87563599 72.42396484 25.87563599 72.42396484 24.66479492 72.41015625 C17.52239951 72.19807151 12.33063963 71.09181469 6.984375 66.12890625 C2.17251344 60.95517705 -0.26010704 56.5732818 -0.22705078 49.38354492 C-0.22689972 48.28278122 -0.22674866 47.18201752 -0.22659302 46.04789734 C-0.21110916 44.28202019 -0.21110916 44.28202019 -0.1953125 42.48046875 C-0.1924826 41.26676102 -0.18965271 40.05305328 -0.18673706 38.80256653 C-0.17555308 34.93077689 -0.1504513 31.05921959 -0.125 27.1875 C-0.11496792 24.56055022 -0.10584246 21.93359681 -0.09765625 19.30664062 C-0.07561951 12.87100439 -0.04110147 6.43554158 0 0 Z " fill="#020202" transform="translate(379,313)"/>
<path d="M0 0 C6.16824813 2.71882005 9.90075691 7.82774681 12.71484375 13.8125 C14.75635967 19.92776816 14.3317655 26.35812443 11.82421875 32.26171875 C9.04870422 37.71536134 6.1395985 41.60402888 0.57421875 44.38671875 C-5.41377968 46.26940821 -13.48148988 46.77473255 -19.17578125 43.88671875 C-19.91828125 43.39171875 -20.66078125 42.89671875 -21.42578125 42.38671875 C-21.42578125 41.72671875 -21.42578125 41.06671875 -21.42578125 40.38671875 C-22.08578125 40.38671875 -22.74578125 40.38671875 -23.42578125 40.38671875 C-23.42578125 48.96671875 -23.42578125 57.54671875 -23.42578125 66.38671875 C-28.37578125 66.38671875 -33.32578125 66.38671875 -38.42578125 66.38671875 C-38.42578125 44.60671875 -38.42578125 22.82671875 -38.42578125 0.38671875 C-33.47578125 0.38671875 -28.52578125 0.38671875 -23.42578125 0.38671875 C-23.09578125 1.70671875 -22.76578125 3.02671875 -22.42578125 4.38671875 C-21.64203125 3.74734375 -20.85828125 3.10796875 -20.05078125 2.44921875 C-14.37236042 -2.01239761 -6.87969012 -1.73930974 0 0 Z " fill="#040404" transform="translate(101.42578125,339.61328125)"/>
<path d="M0 0 C4.95 0 9.9 0 15 0 C15 14.52 15 29.04 15 44 C10.05 44 5.1 44 0 44 C0 29.48 0 14.96 0 0 Z " fill="#000000" transform="translate(118,340)"/>
<path d="M0 0 C3.65305395 2.89200105 5.74232841 5.11040837 6.375 9.75 C5.8528401 14.2753858 4.15770622 15.7671103 1 19 C-2.21694364 20.60847182 -5.52137222 20.61309149 -9 20 C-11.69105198 17.82425584 -13.45532928 16.08934144 -15 13 C-15.39447548 8.81855989 -15.45035186 6.69053952 -13.125 3.125 C-9.28127701 -0.71872299 -5.23487407 -0.83179346 0 0 Z " fill="#F7F7F7" transform="translate(93,352)"/>
<path d="M0 0 C9.19869174 -0.49059689 9.19869174 -0.49059689 13.0625 1.875 C15.41888807 4.45942562 15.95907645 5.37250552 16.1875 8.875 C15.90404516 13.59924741 15.90404516 13.59924741 14 16 C8.54981174 18.99226022 6.75337779 19 0 19 C0 12.73 0 6.46 0 0 Z " fill="#EFEFEF" transform="translate(338,326)"/>
<path d="M0 0 C3.75979392 1.05909688 5.09536663 3.27164342 6.94140625 6.546875 C7.00902541 10.46878648 6.4905046 12.65459018 4.44140625 15.984375 C0.68984892 18.32909833 -2.75980158 18.44607189 -7.05859375 17.546875 C-10.37437451 14.87807585 -10.94867734 13.23079936 -11.62109375 9.046875 C-11.05859375 5.546875 -11.05859375 5.546875 -9.05859375 2.609375 C-5.74275684 0.32973712 -3.94956664 -0.26979962 0 0 Z " fill="#050505" transform="translate(128.05859375,312.453125)"/>
</svg>
